<?xml version="1.0" encoding="UTF-8"?>
<svg descriptor-id="svg12" viewBox="0 0 174 32" xmlns="http://www.w3.org/2000/svg">
<defs descriptor-id="defs35">
<clipPath id="a" descriptor-id="clipPath35">
<rect width="174" height="32" fill="none" dataname="Rectangle 3" descriptor-id="rect35"/>
</clipPath>
</defs>
<path d="m164.89 8.805-2.565 9h-0.129l-2.7-9h-5.979v14.329h3.773l-0.378-10.985 0.17-0.037 3.564 11.022h3.264l3.548-11.022 0.169 0.037-0.378 10.985h3.773v-14.329z" fill="#004387" dataname="Path 7" descriptor-id="path35"/>
<g dataname="Group 8" descriptor-id="g35">
<g clip-path="url(#a)" dataname="Group 7" descriptor-id="g36">
<path d="m145.24 23.327c3.83 0 6.545-0.92 6.545-5.332v-4.05c0-4.414-2.715-5.272-6.545-5.272s-6.545 0.858-6.545 5.272v4.055c0 4.412 2.717 5.332 6.545 5.332m0-3.326c-1.962 0-2.659-0.286-2.659-2.428v-3.232c0-2.139 0.7-2.35 2.659-2.35 1.959 0 2.66 0.229 2.66 2.35v3.227c0 2.142-0.7 2.428-2.66 2.428" fill="#004387" dataname="Path 8" descriptor-id="path36"/>
<path d="m129.27 8.805h-3.772v14.329h3.773v-5.616h1.127l3.943 5.616h4.677l-5.4-7.3 4.981-7.031h-4.566l-3.64 5.387h-1.132z" fill="#004387" dataname="Path 9" descriptor-id="path37"/>
<path d="m116.8 11.939h6.434v-3.134h-10.205v14.329h10.339v-3.134h-6.568v-2.789h6.037v-2.655h-6.037z" fill="#004387" dataname="Path 10" descriptor-id="path38"/>
<path d="m99.466 8.805v9.4c0 1.414-0.359 1.949-1.4 1.949-0.38882 0.023178-0.77869-0.021833-1.152-0.133v3.095c0.63329 0.12647 1.2783 0.18481 1.924 0.174 2.868 0 4.207-2.009 4.207-5.142v-6.018h4.094v11h3.773v-14.325z" fill="#004387" dataname="Path 11" descriptor-id="path39"/>
<path d="m89.26 11.939h6.434v-3.134h-10.208v14.329h10.338v-3.134h-6.564v-2.789h6.04v-2.655h-6.04z" fill="#004387" dataname="Path 12" descriptor-id="path40"/>
<path d="m80.413 12.129h3.81v-3.323h-11.394v3.324h3.81v11h3.774z" fill="#004387" dataname="Path 13" descriptor-id="path41"/>
<path d="m69.917 17.938c-0.92969-0.45015-1.3294-1.5606-0.9-2.5 0.20458-0.4503 0.58069-0.80012 1.0446-0.9716 0.46391-0.17148 0.97713-0.15038 1.4254 0.0586 0.93226 0.44783 1.3329 1.5607 0.9 2.5-0.20379 0.45077-0.57955 0.80121-1.0434 0.97311-0.46387 0.17191-0.97725 0.15098-1.4256-0.058115" fill="#f6a500" dataname="Path 14" descriptor-id="path42"/>
<path d="m58.164 19.16h3.336c3.942 0 4.828-1.261 4.828-5.292 0-3.745-1.319-5.063-4.828-5.063h-7.108v14.329h3.772zm0-7.221h2.584c1.473 0 1.7 0.5 1.7 1.967 0 1.853-0.264 2.122-1.7 2.122h-2.584z" fill="#004387" dataname="Path 15" descriptor-id="path43"/>
<path d="m44.092 13.563c0-1.49 0.886-1.757 2.321-1.757 2.112 0 2.356 0.687 2.356 2.732h-3.583v2.656h3.583c0 2.061-0.244 3-2.356 3-1.567 0-2.321-0.116-2.321-1.8v-0.42h-3.886v0.61c0 4.106 2.226 4.741 6 4.741 3.848 0 6.451-0.271 6.451-5.5v-3.708c0-4.584-2.245-5.443-6.395-5.443-3.754 0-6.055 1.909-6.055 4.889z" fill="#004387" dataname="Path 16" descriptor-id="path44"/>
<path d="m15.825 11.955c1.64-0.020278 3.1298 0.95194 3.7715 2.4612s0.30842 3.2568-0.84391 4.4238c-1.1523 1.167-2.8954 1.5225-4.4127 0.89997-1.5173-0.62258-2.5084-2.0999-2.5089-3.74-0.0088878-2.2176 1.7764-4.0253 3.994-4.044" fill="#004387" dataname="Path 17" descriptor-id="path45"/>
<path d="m2.981 21.169c-1.308-3.3222-1.308-7.0168 1.7764e-15 -10.339l8.854 5.17z" fill="#f6a500" dataname="Path 18" descriptor-id="path46"/>
<path d="m15.825 7c4.9719 0 9.0025 4.0306 9.0025 9.0025 0 4.9719-4.0306 9.0025-9.0025 9.0025-3.1845-0.012586-6.1184-1.7297-7.689-4.5l-4.275 2.495c2.4445 4.3097 7.0094 6.9805 11.964 7 7.732 0 14-6.268 14-14 0-7.732-6.268-14-14-14-4.9548 0.018639-9.5201 2.6897-11.964 7l4.272 2.5c1.572-2.7704 4.5067-4.4872 7.692-4.5" fill="#004387" dataname="Path 19" descriptor-id="path47"/>
</g>
</g>
</svg>